HIERARCHY
ROOT Hips
{
	OFFSET 0.00000 0.00000 0.00000
	CHANNELS 6 Xposition Yposition Zposition Zrotation Yrotation Xrotation 
	JOINT LHipJoint
	{
		OFFSET 0 0 0
		CHANNELS 3 Zrotation Yrotation Xrotation
		JOINT LeftHip
		{
			OFFSET 1.28858 -1.83292 1.03970
			CHANNELS 3 Zrotation Yrotation Xrotation
			JOINT LeftKnee
			{
				OFFSET 2.47846 -6.80952 0.00000
				CHANNELS 3 Zrotation Yrotation Xrotation
				JOINT LeftAnkle
				{
					OFFSET 2.75274 -7.56311 0.00000
					CHANNELS 3 Zrotation Yrotation Xrotation
					JOINT LeftToe
					{
						OFFSET 0.12848 -0.35301 1.68223
						CHANNELS 3 Zrotation Yrotation Xrotation
						End Site
						{
							OFFSET 0.00000 -0.00000 0.87311
						}
					}
				}
			}
		}
	}
	JOINT RHipJoint
	{
		OFFSET 0 0 0
		CHANNELS 3 Zrotation Yrotation Xrotation
		JOINT RightHip
		{
			OFFSET -1.31183 -1.83292 1.03970
			CHANNELS 3 Zrotation Yrotation Xrotation
			JOINT RightKnee
			{
				OFFSET -2.44740 -6.72417 0.00000
				CHANNELS 3 Zrotation Yrotation Xrotation
				JOINT RightAnkle
				{
					OFFSET -2.67343 -7.34519 0.00000
					CHANNELS 3 Zrotation Yrotation Xrotation
					JOINT RightToe
					{
						OFFSET -0.16914 -0.46471 1.77626
						CHANNELS 3 Zrotation Yrotation Xrotation
						End Site
						{
							OFFSET -0.00000 -0.00000 0.92777
						}
					}
				}
			}
		}
	}
	JOINT lowerback
	{
		OFFSET 0 0 0
		CHANNELS 3 Zrotation Yrotation Xrotation
		JOINT Chest
		{
			OFFSET 0.01249 2.14252 0.03842
			CHANNELS 3 Zrotation Yrotation Xrotation
			JOINT Chest2
			{
				OFFSET -0.02957 2.14199 -0.03751
				CHANNELS 3 Zrotation Yrotation Xrotation
				JOINT lowerneck
				{
					OFFSET 0 0 0
					CHANNELS 3 Zrotation Yrotation Xrotation
					JOINT Neck
					{
						OFFSET -0.01678 1.65709 -0.05476
						CHANNELS 3 Zrotation Yrotation Xrotation
						JOINT Head
						{
							OFFSET 0.07912 1.58331 -0.11843
							CHANNELS 3 Zrotation Yrotation Xrotation
							End Site
							{
								OFFSET 0.03298 1.73940 -0.04271
							}
						}
					}
				}
				JOINT LeftCollar
				{
					OFFSET 0 0 0
					CHANNELS 3 Zrotation Yrotation Xrotation
					JOINT LeftShoulder
					{
						OFFSET 3.39556 1.16496 0.08673
CHANNELS 3 Zrotation Xrotation Yrotation
						JOINT LeftElbow
						{
OFFSET 0 -5.239100 -0.000000
CHANNELS 3 Zrotation Xrotation Yrotation
							JOINT LeftWrist
							{
OFFSET 0 -3.314670 0.000000
CHANNELS 3 Zrotation Xrotation Yrotation
								JOINT lhand
								{
									OFFSET 0 0 0
CHANNELS 3 Zrotation Xrotation Yrotation
									JOINT LFingers
									{
OFFSET 0 -0.965900 0.000000
CHANNELS 3 Zrotation Xrotation Yrotation
										End Site
										{
OFFSET 0 -0.778730 0.000000
										}
									}
								}
								JOINT LThumb
								{
OFFSET 0 0.000000 0.000000
CHANNELS 3 Zrotation Xrotation Yrotation
									End Site
									{
OFFSET 0 -0.790620 0.790620
									}
								}
							}
						}
					}
				}
				JOINT RightCollar
				{
					OFFSET 0 0 0
					CHANNELS 3 Zrotation Yrotation Xrotation
					JOINT RightShoulder
					{
						OFFSET -3.27193 1.31331 0.33940
CHANNELS 3 Zrotation Xrotation Yrotation
						JOINT RightElbow
						{
OFFSET 0 -5.302520 0.000000
CHANNELS 3 Zrotation Xrotation Yrotation
							JOINT RightWrist
							{
OFFSET 0 -3.678750 0.000000
CHANNELS 3 Zrotation Xrotation Yrotation
								JOINT rhand
								{
									OFFSET 0 0 0
CHANNELS 3 Zrotation Xrotation Yrotation
									JOINT RFingers
									{
OFFSET 0 -0.594810 0.000000
CHANNELS 3 Zrotation Xrotation Yrotation
										End Site
										{
OFFSET 0 -0.479550 0.000000
										}
									}
								}
								JOINT RThumb
								{
OFFSET 0 0.000000 0.000000
CHANNELS 3 Zrotation Xrotation Yrotation
									End Site
									{
OFFSET 0 -0.486870 0.486870
									}
								}
							}
						}
					}
				}
			}
		}
	}
}
MOTION
Frames: 10
Frame Time: 0.008333333333333333
10.198913 21.542191 -16.567310 -1.529410 -0.854519 11.481738 0.000000 0.000000 0.000000 -15.617286 -4.011730 0.770754 0.230794 3.090758 8.531559 0.565030 -10.036443 -14.156345 0.417220 4.145905 11.487551 0.000000 0.000000 0.000000 19.264874 4.689051 5.445391 -0.003558 -0.384178 1.055666 -1.362536 0.731743 -21.849866 -0.946010 -6.193111 17.346207 1.860531 0.688596 -5.397538 -1.294257 0.838100 -5.599926 -2.351997 0.330676 -2.703689 -0.412774 -1.731831 -0.582035 2.256398 -2.523736 10.389500 0.728047 -1.183699 3.488000 0.000000 0.000000 0.000000 154.148668 -37.015918 81.548714 9.909381 -16.597675 1.448937 15.205900 2.729010 21.093335 0.000000 0.000000 0.000000 -7.125000 0.000000 0.000000 -8.524854 8.387187 -7.273361 0.000000 0.000000 0.000000 -145.773312 -34.479891 -98.492078 -8.250280 -13.957712 -1.011605 -21.685144 28.789519 19.670713 0.000000 0.000000 0.000000 7.125000 0.000000 0.000000 6.720069 50.900903 -0.980719
10.206695 21.594844 -16.580135 -1.624445 -0.867277 12.238246 0.000000 0.000000 0.000000 -15.418289 -4.287256 -0.682670 0.282976 3.418910 9.447474 0.513367 -9.605830 -13.499734 0.436331 4.238542 11.748810 0.000000 0.000000 0.000000 19.131756 4.812489 4.258420 -0.006728 -0.525997 1.445407 -1.261552 0.810857 -20.986614 -1.077045 -6.595325 18.522384 1.942906 0.657205 -4.813179 -1.201075 0.804603 -5.194785 -2.306078 0.318201 -2.609992 -0.619718 -1.698917 -1.278919 2.333372 -2.485531 10.705525 0.786401 -1.162405 3.737074 0.000000 0.000000 0.000000 153.966466 -36.583065 81.886898 9.848445 -16.502139 1.431627 15.039276 3.278720 21.035725 0.000000 0.000000 0.000000 -7.125000 0.000000 0.000000 -8.628390 8.465507 -7.350241 0.000000 0.000000 0.000000 -146.178881 -34.306477 -99.106978 -8.241182 -13.943091 -1.009456 -21.922218 28.964479 19.838725 0.000000 0.000000 0.000000 7.125000 0.000000 0.000000 6.535258 51.116724 -0.988275
10.216948 21.650830 -16.600295 -1.710508 -0.885037 13.075797 0.000000 0.000000 0.000000 -15.212683 -4.582136 -2.336259 0.348967 3.795440 10.501887 0.462244 -9.203597 -12.832005 0.450141 4.304319 11.934407 0.000000 0.000000 0.000000 18.947642 4.896744 2.856544 -0.011973 -0.707295 1.943813 -1.156409 0.911926 -20.049966 -1.194054 -6.933740 19.519198 2.046390 0.644045 -4.234453 -1.141640 0.795022 -4.821023 -2.306345 0.315901 -2.545052 -0.776030 -1.668936 -1.777947 2.436488 -2.452944 10.976499 0.846617 -1.142490 3.934055 0.000000 0.000000 0.000000 153.763892 -36.280458 82.319209 9.801702 -16.428718 1.418357 14.819004 3.915241 21.040511 0.000000 0.000000 0.000000 -7.125000 0.000000 0.000000 -8.768694 8.487059 -7.468892 0.000000 0.000000 0.000000 -146.404361 -34.182014 -99.230498 -8.271707 -13.992388 -1.016853 -22.045651 28.607465 20.061068 0.000000 0.000000 0.000000 7.125000 0.000000 0.000000 6.479008 51.370439 -1.020216
10.230224 21.709615 -16.630940 -1.756008 -0.832464 14.008230 0.000000 0.000000 0.000000 -15.013148 -4.976466 -4.245491 0.438083 4.243750 11.763875 0.409230 -8.832317 -12.116756 0.466571 4.381037 12.151245 0.000000 0.000000 0.000000 18.692754 4.944515 1.215641 -0.020947 -0.930126 2.556681 -1.050517 0.999747 -19.064420 -1.319848 -7.274924 20.533070 2.160616 0.634333 -3.636619 -1.137124 0.790600 -4.517025 -2.370295 0.313281 -2.563333 -0.802001 -1.641076 -1.887158 2.500015 -2.421215 11.058970 0.873205 -1.123348 3.985895 0.000000 0.000000 0.000000 153.545020 -36.184983 82.654595 9.786767 -16.405403 1.414148 14.698130 4.351381 21.096364 0.000000 0.000000 0.000000 -7.125000 0.000000 0.000000 -8.847826 8.444955 -7.545464 0.000000 0.000000 0.000000 -146.380680 -34.145992 -98.822893 -8.340567 -14.103462 -1.033530 -22.074533 27.846935 20.348215 0.000000 0.000000 0.000000 7.125000 0.000000 0.000000 6.537148 51.675816 -1.078643
10.244774 21.771695 -16.670870 -1.756720 -0.700552 14.963402 0.000000 0.000000 0.000000 -14.817504 -5.438292 -6.311083 0.549021 4.744237 13.180897 0.351374 -8.523270 -11.325168 0.502500 4.543993 12.612526 0.000000 0.000000 0.000000 18.396023 4.999780 -0.532253 -0.033974 -1.187617 3.265127 -0.955024 1.070471 -18.140156 -1.465544 -7.649803 21.655762 2.267686 0.612146 -2.942080 -1.171333 0.772122 -4.249921 -2.471674 0.301696 -2.675514 -0.727793 -1.640316 -1.719955 2.518836 -2.423116 10.980724 0.867108 -1.121816 3.924502 0.000000 0.000000 0.000000 153.337179 -36.209976 82.830630 9.782794 -16.399133 1.413048 14.790205 4.500554 21.146549 0.000000 0.000000 0.000000 -7.125000 0.000000 0.000000 -8.791336 8.383308 -7.506943 0.000000 0.000000 0.000000 -146.200966 -34.169155 -98.133113 -8.422106 -14.234731 -1.053505 -22.114831 26.989557 20.675028 0.000000 0.000000 0.000000 7.125000 0.000000 0.000000 6.597725 52.024532 -1.145238
10.258623 21.837880 -16.719342 -1.728138 -0.525359 15.868300 0.000000 0.000000 0.000000 -14.612147 -5.889665 -8.457847 0.685380 5.290173 14.738798 0.289676 -8.291243 -10.456211 0.559828 4.792027 13.316398 0.000000 0.000000 0.000000 18.087792 5.045076 -2.324763 -0.053784 -1.493794 4.108544 -0.872838 1.159740 -17.300425 -1.611930 -8.005478 22.731140 2.353458 0.567247 -2.068743 -1.210291 0.727984 -3.963126 -2.567955 0.276905 -2.870594 -0.603259 -1.665444 -1.450979 2.477648 -2.453084 10.781202 0.831569 -1.136253 3.798900 0.000000 0.000000 0.000000 153.114022 -36.227532 82.862261 9.761170 -16.365157 1.406962 14.929943 4.621602 21.185977 0.000000 0.000000 0.000000 -7.125000 0.000000 0.000000 -8.704232 8.326723 -7.440681 0.000000 0.000000 0.000000 -146.004136 -34.242971 -97.497681 -8.497239 -14.355616 -1.072075 -22.185002 26.300241 20.973559 0.000000 0.000000 0.000000 7.125000 0.000000 0.000000 6.621452 52.349109 -1.202122
10.271036 21.906699 -16.773955 -1.706706 -0.393883 16.686175 0.000000 0.000000 0.000000 -14.385974 -6.256649 -10.625434 0.850237 5.876733 16.428382 0.232260 -8.111435 -9.599516 0.615518 5.020748 13.967750 0.000000 0.000000 0.000000 17.799714 5.057274 -4.148396 -0.083724 -1.861120 5.122114 -0.797429 1.296028 -16.481315 -1.729740 -8.278334 23.563085 2.417833 0.512509 -1.001567 -1.227064 0.676089 -3.600150 -2.630021 0.249520 -3.098045 -0.476991 -1.694529 -1.328708 2.372940 -2.481132 10.550014 0.774240 -1.151611 3.689919 0.000000 0.000000 0.000000 152.846304 -36.136728 82.878484 9.717549 -16.296545 1.394665 14.855683 5.052171 21.218568 0.000000 0.000000 0.000000 -7.125000 0.000000 0.000000 -8.752789 8.302710 -7.487414 0.000000 0.000000 0.000000 -145.927245 -34.325795 -97.197817 -8.545611 -14.433361 -1.084113 -22.222213 25.873844 21.119502 0.000000 0.000000 0.000000 7.125000 0.000000 0.000000 6.630619 52.508275 -1.229677
10.281556 21.974438 -16.833235 -1.709374 -0.407117 17.466055 0.000000 0.000000 0.000000 -14.149120 -6.512129 -12.846868 1.044903 6.500331 18.243438 0.186707 -7.928794 -8.860801 0.635282 5.099535 14.192572 0.000000 0.000000 0.000000 17.519129 5.066818 -6.082555 -0.127323 -2.299261 6.333512 -0.721496 1.493453 -15.608847 -1.804305 -8.446001 24.077162 2.434860 0.480937 0.189503 -1.220560 0.658196 -3.159555 -2.642304 0.241918 -3.314763 -0.389966 -1.703568 -1.436102 2.239139 -2.478378 10.304712 0.714037 -1.152848 3.620283 0.000000 0.000000 0.000000 152.530368 -35.958887 83.046565 9.669297 -16.220598 1.381096 14.535811 5.917741 21.244845 0.000000 0.000000 0.000000 -7.125000 0.000000 0.000000 -8.956878 8.314436 -7.664333 0.000000 0.000000 0.000000 -146.058278 -34.393980 -97.459930 -8.544886 -14.432198 -1.083848 -22.184611 25.802594 21.111055 0.000000 0.000000 0.000000 7.125000 0.000000 0.000000 6.665957 52.492625 -1.233698
10.289798 22.034577 -16.899719 -1.739132 -0.628390 18.331971 0.000000 0.000000 0.000000 -13.893084 -6.663159 -15.311439 1.287510 7.184816 20.266263 0.155720 -7.725726 -8.289394 0.578076 4.866864 13.529552 0.000000 0.000000 0.000000 17.226635 5.100477 -8.347035 -0.196330 -2.845350 7.848953 -0.643160 1.762593 -14.647250 -1.772344 -8.374515 23.857684 2.367061 0.505937 1.403021 -1.213832 0.713926 -2.700863 -2.610212 0.273690 -3.522785 -0.348797 -1.685526 -1.659275 2.137771 -2.439879 9.992681 0.673269 -1.136820 3.550656 0.000000 0.000000 0.000000 152.221049 -35.784757 83.324223 9.615614 -16.136057 1.366172 14.226056 6.860238 21.228920 0.000000 0.000000 0.000000 -7.125000 0.000000 0.000000 -9.152748 8.366939 -7.826712 0.000000 0.000000 0.000000 -146.278143 -34.440080 -97.881820 -8.534136 -14.414892 -1.081215 -22.041398 25.772623 21.144819 0.000000 0.000000 0.000000 7.125000 0.000000 0.000000 6.821368 52.501781 -1.264335
10.296163 22.085292 -16.976176 -1.773338 -0.942853 19.356472 0.000000 0.000000 0.000000 -13.605182 -6.825498 -18.125665 1.586544 7.941712 22.539367 0.130489 -7.545806 -7.794918 0.477412 4.428618 12.286160 0.000000 0.000000 0.000000 16.916064 5.185389 -11.009334 -0.297512 -3.501015 9.677499 -0.572812 2.125920 -13.724684 -1.655450 -8.107497 23.041528 2.225008 0.558540 2.574676 -1.214491 0.800804 -2.272447 -2.547057 0.322191 -3.737764 -0.339109 -1.666205 -1.916232 2.089158 -2.402574 9.625138 0.655226 -1.120699 3.469986 0.000000 0.000000 0.000000 151.940957 -35.596202 83.563938 9.547690 -16.028986 1.347390 14.080779 7.617229 21.173974 0.000000 0.000000 0.000000 -7.125000 0.000000 0.000000 -9.242851 8.439173 -7.892474 0.000000 0.000000 0.000000 -146.435826 -34.455520 -97.983062 -8.570696 -14.473646 -1.090343 -21.803252 25.451368 21.333447 0.000000 0.000000 0.000000 7.125000 0.000000 0.000000 7.123848 52.654957 -1.347657
